# AST/ASF file generated using VICON BodyLanguage
# -----------------------------------------------
:version 1.10
:name VICON
:units
  mass 1.0
  length 0.45
  angle deg
:documentation
   .ast/.asf automatically generated from VICON data using
   VICON BodyBuilder and BodyLanguage model FoxedUp or BRILLIANT.MOD
:root
   order TX TY TZ RX RY RZ
   axis XYZ
   position 0 0 0  
   orientation 0 0 0 
:bonedata
  begin
     id 1 
     name lhipjoint
     direction 0.722297 -0.617336 0.311742 
     length 2.6635 
     axis 0 0 0  XYZ
  end
  begin
     id 2 
     name lfemur
     direction 0.34202 -0.939693 0  
     length 7.39349  
     axis 0 0 20  XYZ
    dof rx ry rz
    limits (-160.0 20.0)
           (-70.0 70.0)
           (-60.0 70.0)
  end
  begin
     id 3 
     name ltibia
     direction 0.34202 -0.939693 0   
     length 7.36294   
     axis 0 0 20   XYZ
    dof rx
    limits (-10.0 170.0)
  end
  begin
     id 4 
     name lfoot
     direction 0.104879 -0.288152 0.951824   
     length 2.16981   
     axis -90 7.62852e-016 20   XYZ
    dof rx rz
    limits (-45.0 90.0)
           (-70.0 20.0)
  end
  begin
     id 5 
     name ltoes
     direction 1.53586e-011 -4.21895e-011 1   
     length 1.08218   
     axis -90 7.62852e-016 20   XYZ
    dof rx
    limits (-90.0 20.0)
  end
  begin
     id 6 
     name rhipjoint
     direction -0.75102 -0.589393 0.297631   
     length 2.78977  
     axis 0 0 0  XYZ 
  end
  begin
     id 7 
     name rfemur
     direction -0.34202 -0.939693 0   
     length 7.46076   
     axis 0 0 -20   XYZ
    dof rx ry rz
    limits (-160.0 20.0)
           (-70.0 70.0)
           (-70.0 60.0)
  end
  begin
     id 8 
     name rtibia
     direction -0.34202 -0.939693 0   
     length 7.31726   
     axis 0 0 -20   XYZ
    dof rx
    limits (-10.0 170.0)
 end
 begin
     id 9 
     name rfoot
     direction -0.107991 -0.296704 0.948844   
     length 2.09388  
     axis -90 -7.62852e-016 -20   XYZ
    dof rx rz
    limits (-45.0 90.0)
           (-20.0 70.0)
  end
  begin
     id 10 
     name rtoes
     direction -1.53559e-011 -4.21911e-011 1   
     length 1.04433   
     axis -90 -7.62852e-016 -20   XYZ
    dof rx
    limits (-90.0 20.0)
  end
  begin
     id 11 
     name lowerback
     direction 0.0165164 0.98272 0.184358   
     length 1.71896   
     axis 0 0 0   XYZ
    dof rx ry rz
    limits (-20.0 45.0)
           (-30.0 30.0)
           (-30.0 30.0)
  end
  begin
     id 12 
     name upperback
     direction -0.00887249 0.992297 0.123566   
     length 1.71504   
     axis 0 0 0   XYZ
    dof rx ry rz
    limits (-20.0 45.0)
           (-30.0 30.0)
           (-30.0 30.0)
  end
  begin
     id 13 
     name thorax
     direction -0.0157026 0.998908 0.0440032   
     length 1.77022   
     axis 0 0 0   XYZ
    dof rx ry rz
    limits (-20.0 45.0)
           (-30.0 30.0)
           (-30.0 30.0)
  end
  begin
     id 14 
     name lowerneck
     direction -0.0238856 0.998137 0.0561411   
     length 1.89341   
     axis 0 0 0   XYZ
    dof rx ry rz
    limits (-20.0 45.0)
           (-30.0 30.0)
           (-30.0 30.0)
  end
  begin
     id 15 
     name upperneck
     direction 0.0276574 0.952253 -0.304056   
     length 1.86999   
     axis 0 0 0   XYZ
    dof rx ry rz
    limits (-20.0 45.0)
           (-30.0 30.0)
           (-30.0 30.0)
  end
  begin
     id 16
     name head
     direction 0.00800083 0.994258 -0.106712  
     length 1.91492  
     axis 0 0 0   XYZ
    dof rx ry rz
    limits (-20.0 45.0)
           (-30.0 30.0)
           (-30.0 30.0)
  end
  begin
     id 17 
     name lclavicle
     direction 0.97203 0.225407 0.06595  
     length 3.34889  
     axis 0 0 0   XYZ
    dof ry rz
    limits (-20.0 10.0)
           (0.0 20.0)
  end
  begin
     id 18 
     name lhumerus
     direction 1 -4.48973e-011 2.20267e-027   
     length 4.85645   
     axis 180 -30 -90   XYZ
    dof rx ry rz
    limits (-60.0 90.0)
           (-90.0 90.0)
           (-90.0 90.0)
  end
  begin
     id 19
     name lradius
     direction 1 -4.4897e-011 4.60472e-027   
     length 2.79874   
     axis 180 -30 -90   XYZ
    dof rx
    limits (-10.0 170.0)
  end
  begin
     id 20
     name lwrist
     direction 1 -4.48952e-011 1.14928e-026   
     length 1.39937   
     axis -6.29373e-015 90 90   XYZ
    dof ry
    limits (-180.0 0.0)
 end
  begin
     id 21 
     name lhand
     direction 1 -4.48967e-011 2.29886e-026   
     length 0.573398   
     axis -1.46689e-014 90 90   XYZ
    dof rx rz
    limits (-90.0 90.0)
           (-45.0 45.0)
  end
  begin
     id 22 
     name lfingers
     direction 1 -4.48955e-011 4.59726e-026   
     length 0.462289   
     axis -2.93383e-014 90 90   XYZ
    dof rx
    limits (0.0 90.0)
  end
  begin
     id 23
     name lthumb
     direction 0.707107 -6.34866e-011 0.707107   
     length 0.663757   
     axis -90 45 5.69224e-014   XYZ
    dof rx rz
    limits (-45.0 45.0)
           (-45.0 45.0)
  end
  begin
     id 24 
     name rclavicle
     direction -0.981571 0.157346 0.108443   
     length 3.35257  
     axis 0 0 0   XYZ 
    dof ry rz
    limits (-10.0 20.0)
           (-20.0 0.0)
  end
  begin
     id 25 
     name rhumerus
     direction -1 -4.48967e-011 8.58308e-029  
     length 4.67018   
     axis 180 30 90   XYZ
    dof rx ry rz
    limits (-90.0 60.0)
           (-90.0 90.0)
           (-90.0 90.0)
  end
  begin
     id 26 
     name rradius
     direction -1 -4.48958e-011 4.52548e-027   
     length 2.65534   
     axis 180 30 90   XYZ
    dof rx
    limits (-10.0 170.0)
  end
  begin
     id 27 
     name rwrist
     direction -1 -4.48977e-011 1.14952e-026   
     length 1.32767   
     axis -6.29373e-015 -90 -90   XYZ
    dof ry
    limits (-180.0 0.0)
  end
  begin
     id 28
     name rhand
     direction -1 -4.48924e-011 2.29804e-026   
     length 0.594069   
     axis -1.46689e-014 -90 -90   XYZ
    dof rx rz
    limits (-90.0 90.0)
           (-45.0 45.0)
  end
  begin
     id 29
     name rfingers
     direction -1 -4.48998e-011 4.59888e-026   
     length 0.478954   
     axis -2.93383e-014 -90 -90   XYZ
    dof rx
    limits (0.0 90.0)
  end
  begin
     id 30
     name rthumb
     direction -0.707107 -6.34933e-011 0.707107   
     length 0.687685   
     axis -90 -45 -5.69224e-014   XYZ
    dof rx rz
    limits (-45.0 45.0)
           (-45.0 45.0)
  end
:hierarchy
  begin
    root lhipjoint rhipjoint lowerback
    lhipjoint lfemur
    lfemur ltibia
    ltibia lfoot
    lfoot ltoes
    rhipjoint rfemur
    rfemur rtibia
    rtibia rfoot
    rfoot rtoes
    lowerback upperback
    upperback thorax
    thorax lowerneck lclavicle rclavicle
    lowerneck upperneck
    upperneck head
    lclavicle lhumerus
    lhumerus lradius
    lradius lwrist
    lwrist lhand lthumb
    lhand lfingers
    rclavicle rhumerus
    rhumerus rradius
    rradius rwrist
    rwrist rhand rthumb
    rhand rfingers
  end

#!OML:ASF E:\pregnant2\Project 1\Capture day 1\Session 1\pregnant2.ASF
:FULLY-SPECIFIED
:DEGREES
871
root -5.14847 1.54606 18.2044 -69.6721 -5.84882 5.13246
lowerback -4.39832 1.60229 3.30927
upperback -3.57802 1.99553 -1.51217
thorax -1.05144 0.908409 -3.34182
lowerneck -13.7636 -0.630068 -1.81825
upperneck 38.8964 0.879489 -3.40477
head 16.2363 -0.494274 -1.04709
rclavicle -1.49089e-015 -1.75676e-014
rhumerus -113.774 38.2816 -141.754
rradius 104.228
rwrist -17.7919
rhand -14.7297 -34.8142
rfingers 7.12502
rthumb 191.425 115.517
lclavicle -1.49089e-015 -1.75676e-014
lhumerus -107.925 -40.9114 129.497
lradius 86.9649
lwrist 27.7493
lhand -17.2446 22.0541
lfingers 7.12502
lthumb 188.999 -128.158
rfemur -69.1019 -3.75293 25.619
rtibia 104.52
rfoot 28.3935 -13.9481
rtoes 25.9602
lfemur -66.8389 5.47788 -18.8103
ltibia 104.801
lfoot 24.9014 -9.60567
ltoes -10.7622
872
root -5.15153 1.54025 18.1969 -69.8725 -5.84831 5.15944
lowerback -4.35107 1.58919 3.27643
upperback -3.53793 1.98076 -1.51038
thorax -1.03863 0.902702 -3.32266
lowerneck -13.8509 -0.627002 -1.80677
upperneck 38.8568 0.877556 -3.39331
head 16.2369 -0.491509 -1.04402
rclavicle 2.00773e-014 8.99501e-015
rhumerus -113.822 38.6079 -141.88
rradius 104.377
rwrist -17.9005
rhand -14.0868 -35.1281
rfingers 7.12502
rthumb 192.045 115.239
lclavicle 2.00773e-014 8.99501e-015
lhumerus -108.035 -41.0699 129.69
lradius 87.0234
lwrist 28.1454
lhand -17.3209 22.2227
lfingers 7.12502
lthumb 188.926 -127.986
rfemur -69.009 -3.72591 25.4986
rtibia 104.681
rfoot 28.4155 -13.9517
rtoes 26.0873
lfemur -66.6702 5.50914 -18.7723
ltibia 104.896
lfoot 25.09 -9.51699
ltoes -10.4598
873
root -5.15462 1.5351 18.1893 -70.0614 -5.84887 5.18708
lowerback -4.31794 1.5801 3.2405
upperback -3.5053 1.97086 -1.50726
thorax -1.02537 0.899326 -3.29993
lowerneck -13.9194 -0.623607 -1.78646
upperneck 38.8265 0.877973 -3.39435
head 16.2379 -0.488326 -1.04775
rclavicle -1.53064e-014 -9.46712e-015
rhumerus -113.871 38.917 -141.985
rradius 104.521
rwrist -17.9602
rhand -13.4106 -35.4239
rfingers 7.12502
rthumb 192.697 114.982
lclavicle -1.53064e-014 -9.46712e-015
lhumerus -108.151 -41.2121 129.893
lradius 87.0728
lwrist 28.5125
lhand -17.4102 22.3829
lfingers 7.12502
lthumb 188.84 -127.822
rfemur -68.923 -3.70299 25.3901
rtibia 104.839
rfoot 28.4401 -13.9225
rtoes 26.1357
lfemur -66.5139 5.54365 -18.7316
ltibia 104.998
lfoot 25.2529 -9.43252
ltoes -10.1779
874
root -5.1577 1.53015 18.1818 -70.2444 -5.84823 5.21267
lowerback -4.28477 1.57844 3.21017
upperback -3.48642 1.97054 -1.51182
thorax -1.02514 0.900001 -3.28815
lowerneck -13.9506 -0.625449 -1.76188
upperneck 38.7989 0.865134 -3.39106
head 16.2306 -0.489414 -1.05246
rclavicle -5.76476e-015 -5.04416e-015
rhumerus -113.91 39.1885 -142.065
rradius 104.606
rwrist -17.8948
rhand -12.7476 -35.5758
rfingers 7.12502
rthumb 193.336 114.871
lclavicle -5.76476e-015 -5.04416e-015
lhumerus -108.315 -41.3556 130.126
lradius 87.1264
lwrist 28.8663
lhand -17.5274 22.5372
lfingers 7.12502
lthumb 188.726 -127.663
rfemur -68.8414 -3.6874 25.2914
rtibia 104.997
rfoot 28.4746 -13.8539
rtoes 26.102
lfemur -66.367 5.57681 -18.6906
ltibia 105.11
lfoot 25.3884 -9.37686
ltoes -9.95514
875
root -5.16064 1.52523 18.1747 -70.4181 -5.84703 5.23335
lowerback -4.25688 1.5789 3.18539
upperback -3.47671 1.97263 -1.5207
thorax -1.03094 0.901437 -3.28388
lowerneck -13.9636 -0.629752 -1.74335
upperneck 38.7797 0.842856 -3.37101
head 16.2229 -0.493023 -1.05046
rclavicle -3.77691e-015 2.27857e-014
rhumerus -113.954 39.438 -142.138
rradius 104.599
rwrist -17.6837
rhand -12.1821 -35.4923
rfingers 7.12502
rthumb 193.882 114.991
lclavicle -3.77691e-015 2.27857e-014
lhumerus -108.477 -41.4969 130.359
lradius 87.159
lwrist 29.1961
lhand -17.6418 22.6764
lfingers 7.12502
lthumb 188.616 -127.519
rfemur -68.7689 -3.68149 25.2032
rtibia 105.157
rfoot 28.5122 -13.7626
rtoes 26.0334
lfemur -66.2368 5.60556 -18.6492
ltibia 105.233
lfoot 25.5002 -9.35198
ltoes -9.77603
876
root -5.16344 1.52032 18.1681 -70.5813 -5.8451 5.25079
lowerback -4.23869 1.57918 3.16352
upperback -3.47079 1.97409 -1.52899
thorax -1.03522 0.902469 -3.28048
lowerneck -13.9684 -0.635056 -1.73127
upperneck 38.7615 0.820963 -3.35133
head 16.2138 -0.497529 -1.04739
rclavicle -1.13307e-014 -2.57426e-014
rhumerus -114.022 39.6726 -142.228
rradius 104.522
rwrist -17.3873
rhand -11.7871 -35.216
rfingers 7.12502
rthumb 194.262 115.294
lclavicle -1.13307e-014 -2.57426e-014
lhumerus -108.624 -41.6355 130.585
lradius 87.1772
lwrist 29.5068
lhand -17.7528 22.8085
lfingers 7.12502
lthumb 188.509 -127.383
rfemur -68.708 -3.68351 25.1243
rtibia 105.319
rfoot 28.5518 -13.6518
rtoes 25.9473
lfemur -66.125 5.63241 -18.608
ltibia 105.367
lfoot 25.5814 -9.38941
ltoes -9.69336
877
root -5.16616 1.51543 18.1621 -70.7375 -5.8445 5.26693
lowerback -4.23161 1.57818 3.14296
upperback -3.46449 1.9735 -1.53424
thorax -1.03314 0.902614 -3.27443
lowerneck -13.9678 -0.638872 -1.71777
upperneck 38.7443 0.804334 -3.34014
head 16.2041 -0.500831 -1.04737
rclavicle -5.76476e-015 -1.28962e-014
rhumerus -114.128 39.8985 -142.361
rradius 104.385
rwrist -17.0494
rhand -11.626 -34.7934
rfingers 7.12502
rthumb 194.417 115.727
lclavicle -5.76476e-015 -1.28962e-014
lhumerus -108.75 -41.774 130.79
lradius 87.1822
lwrist 29.8095
lhand -17.8327 22.9256
lfingers 7.12502
lthumb 188.432 -127.263
rfemur -68.654 -3.68986 25.055
rtibia 105.484
rfoot 28.5898 -13.5466
rtoes 25.8987
lfemur -66.0266 5.66055 -18.565
ltibia 105.509
lfoot 25.6326 -9.50896
ltoes -9.76873
878
root -5.16894 1.5106 18.1563 -70.8931 -5.84418 5.28842
lowerback -4.23401 1.57448 3.11652
upperback -3.45262 1.96927 -1.53384
thorax -1.02067 0.901404 -3.25902
lowerneck -13.9661 -0.639209 -1.70591
upperneck 38.724 0.797699 -3.33847
head 16.1928 -0.501464 -1.0494
rclavicle 2.04748e-014 7.03201e-015
rhumerus -114.274 40.128 -142.547
rradius 104.253
rwrist -16.7636
rhand -11.6322 -34.3947
rfingers 7.12502
rthumb 194.411 116.126
lclavicle 2.04748e-014 7.03201e-015
lhumerus -108.849 -41.9082 130.973
lradius 87.1774
lwrist 30.098
lhand -17.8886 23.0283
lfingers 7.12502
lthumb 188.378 -127.158
rfemur -68.5976 -3.69561 24.9917
rtibia 105.65
rfoot 28.6292 -13.4436
rtoes 25.8772
lfemur -65.9293 5.69482 -18.52
ltibia 105.653
lfoot 25.6706 -9.6493
ltoes -9.89165
879
root -5.17197 1.5058 18.1505 -71.0536 -5.84646 5.31822
lowerback -4.23744 1.56229 3.07163
upperback -3.43375 1.95442 -1.51866
thorax -1.00228 0.895629 -3.21822
lowerneck -13.9747 -0.631665 -1.694
upperneck 38.7049 0.811564 -3.35446
head 16.1854 -0.495996 -1.05571
rclavicle 4.57205e-015 -1.12065e-014
rhumerus -114.481 40.3786 -142.801
rradius 104.149
rwrist -16.5471
rhand -11.7552 -34.0992
rfingers 7.12502
rthumb 194.293 116.413
lclavicle 4.57205e-015 -1.12065e-014
lhumerus -108.876 -42.0147 131.125
lradius 87.1332
lwrist 30.3587
lhand -17.9362 23.124
lfingers 7.12502
lthumb 188.332 -127.06
rfemur -68.5336 -3.69678 24.9376
rtibia 105.817
rfoot 28.6695 -13.3381
rtoes 25.8667
lfemur -65.8276 5.74061 -18.4687
ltibia 105.799
lfoot 25.7179 -9.72014
ltoes -9.86194
880
root -5.17529 1.50103 18.1447 -71.2231 -5.84999 5.36122
lowerback -4.23515 1.55303 3.02145
upperback -3.41206 1.94377 -1.5023
thorax -0.983992 0.892071 -3.17316
lowerneck -13.9772 -0.624523 -1.67414
upperneck 38.6816 0.827755 -3.38527
head 16.1744 -0.490471 -1.06941
rclavicle 8.34896e-015 -1.11071e-014
rhumerus -114.708 40.6228 -143.093
rradius 104.057
rwrist -16.3626
rhand -11.9474 -33.8856
rfingers 7.12502
rthumb 194.108 116.613
lclavicle 8.34896e-015 -1.11071e-014
lhumerus -108.937 -42.1229 131.283
lradius 87.1122
lwrist 30.5825
lhand -17.9736 23.2157
lfingers 7.12502
lthumb 188.296 -126.967
rfemur -68.4581 -3.68873 24.8889
rtibia 105.983
rfoot 28.72 -13.2158
rtoes 25.8328
lfemur -65.7139 5.80116 -18.4134
ltibia 105.944
lfoot 25.7771 -9.77907
ltoes -9.82323
881
root -5.17882 1.49625 18.1388 -71.4089 -5.85567 5.41866
lowerback -4.21759 1.54598 2.96737
upperback -3.38772 1.93658 -1.4847
thorax -0.971376 0.890236 -3.12489
lowerneck -13.979 -0.616882 -1.65918
upperneck 38.6657 0.843883 -3.40972
head 16.1671 -0.484897 -1.07963
rclavicle 9.14409e-015 -5.61567e-015
rhumerus -114.951 40.8652 -143.412
rradius 103.969
rwrist -16.1883
rhand -12.1517 -33.7289
rfingers 7.12502
rthumb 193.911 116.756
lclavicle 9.14409e-015 -5.61567e-015
lhumerus -109 -42.2231 131.443
lradius 87.0828
lwrist 30.7418
lhand -17.9956 23.3011
lfingers 7.12502
lthumb 188.275 -126.881
rfemur -68.3611 -3.66997 24.8452
rtibia 106.15
rfoot 28.7768 -13.083
rtoes 25.7755
lfemur -65.5772 5.87823 -18.352
ltibia 106.087
lfoot 25.8516 -9.84479
ltoes -9.79654
